<svg xmlns="http://www.w3.org/2000/svg" xml:space="preserve" width="614.476" height="466.522" style="shape-rendering:geometricPrecision;text-rendering:geometricPrecision;image-rendering:optimizeQuality;fill-rule:evenodd;clip-rule:evenodd" viewBox="0 0 17298.08 13133.07"><path d="m8961.25 367.12 3179.59 4868.82h932.15v546.72h-575.1l4508.97 6904.46 291.22 445.94H0l297.65-448.2 4583.66-6902.2h-765.5v-546.72h1128.57L8479.19 364.88 8721.49 0l239.76 367.12zM8703.9 5782.66v-546.72h2748.8L8717.82 1048.11 5936.73 5235.94h2548.2v546.72H6588.75v3815.05c264.35-47.01 544.85-70.52 841.51-70.52 462.46 0 943.84 86.87 1444.14 260.6 500.31 173.74 885 407.42 1154.08 701.06l-189.2 80.74c-235.44-254.48-582.29-466.15-1040.56-634.99-458.26-168.83-922.83-253.26-1393.71-253.26-294.01 0-566.1 25.25-816.27 75.69v1984.43c232.35 40.91 491.81 61.4 778.44 61.4 941.76 0 1694.31-124.79 2257.69-374.39 361.61-159.87 687.98-377.11 979.13-651.66v-1452.7c-304.06-26.42-558.98-95.76-764.72-208.03-269.07-146.82-777.79-220.22-1526.14-220.22-269.07 0-506.61 26.92-712.63 80.74-206.01 53.84-418.32 139.48-636.94 256.94l-201.8-80.76c294.3-151.71 590.69-260.6 889.19-326.66 298.5-66.07 578.09-99.11 838.75-99.11 319.52 0 594.9 19.58 826.13 58.73 231.22 39.14 485.59 102.77 763.07 190.86 227.03 73.41 382.59 119.91 466.67 139.48 19.69 4.99 39.16 9.71 58.41 14.18V6908.75c-113.16-18.17-233.53-31.16-361.11-38.97-58.86 0-124.03-1.23-195.51-3.68-71.47-2.45-119.81-3.66-145.04-3.66-159.76 0-277.47 2.45-353.15 7.34-605.41 39.14-1130.94 181.08-1576.6 425.77-395.2 215.34-731.54 508.97-1009.02 880.91l-201.8-73.4c336.34-323 611.71-639.88 826.13-950.65 214.41-310.77 388.89-649.67 523.43-1016.72h252.26c-75.68 151.71-147.16 282.62-214.42 392.74-67.26 110.11-138.74 245.92-214.41 407.42l50.44 29.37c672.69-166.39 1299.12-249.59 1879.31-249.59 265.16 0 511.64 13.33 739.49 39.96v-972.93h-1900.1zm3105.84 0h-632.92v1077.92c301.14 78.7 557.42 189.42 768.77 332.2 445.66 298.53 668.47 719.41 668.47 1262.63 0 905.38-454.05 1698.2-1362.17 2378.45-24.82 18.74-49.89 37.18-75.07 55.43v933.8H10604v-575.38c-883.13 472.86-1949.46 709.31-3198.99 709.31-447.56 0-840.99-44.65-1180.28-133.93h-208.82v-62.91c-145.4-49.75-279.39-108.92-401.92-177.55-412.01-230.01-618.03-516.3-618.03-858.88 0-371.94 273.28-672.92 819.83-902.93 65.41-27.2 132.11-52.49 200.11-75.9V5782.66h-442.26L1076.2 12555.04h15156.23l-4422.72-6772.38zm-632.92 1288.13v2115.54c88.07-5.06 167.76-16.25 239.04-33.54 100.9-24.47 197.6-68.51 290.09-132.13 92.49-181.08 153.46-321.77 182.89-422.1 29.43-100.32 44.14-196.98 44.14-289.96 0-396.4-105.11-707.17-315.32-932.3-115.58-124.35-262.55-226.17-440.85-305.51zm0 2251.79v774.02c168.41-249.83 319.59-527.68 453.46-833.69l-75.68-29.37c-75.67 29.37-166.05 53.83-271.16 73.4-33.23 6.19-68.76 11.4-106.61 15.63zm-5160.9 610.14c-44.53 19.12-88.12 39.31-130.75 60.61-416.22 208-624.32 444.12-624.32 708.39 0 254.49 138.74 482.05 416.23 682.71 100.01 73.73 212.97 137.72 338.84 191.96V9932.71z" style="fill:#fff;fill-rule:nonzero"/></svg>